<?xml version="1.0" encoding="utf-8"?>
<svg version="1.0" width="1108.000000pt" height="436.000000pt" viewBox="0 0 1108.000000 436.000000" preserveAspectRatio="xMidYMid meet" xmlns="http://www.w3.org/2000/svg">
  <g transform="matrix(0.1, 0, 0, -0.1, -115.256485, 410.85907)" fill="#000000" stroke="none">
    <path d="M2774 2766 c-20 -9 -35 -25 -43 -46 -8 -23 -11 -205 -11 -607 0 -615 1 -627 50 -653 29 -16 83 -5 106 21 17 19 20 43 24 213 3 105 9 197 13 204 6 8 46 12 141 12 160 0 221 10 303 51 121 59 206 176 222 307 31 247 -112 460 -338 502 -83 15 -429 12 -467 -4z m486 -173 c187 -83 213 -358 45 -475 -50 -35 -119 -48 -254 -48 -162 0 -151 -20 -151 275 0 301 -15 278 180 273 107 -4 144 -9 180 -25z"/>
    <path d="M4415 2379 c-114 -17 -235 -96 -298 -195 -88 -141 -100 -334 -29 -484 50 -107 174 -205 303 -240 62 -17 204 -16 264 2 112 34 190 84 200 129 8 31 -35 79 -70 79 -13 0 -58 -17 -101 -37 -74 -36 -85 -38 -174 -38 -79 1 -102 5 -138 23 -88 47 -151 126 -169 213 l-5 29 341 0 c328 0 342 1 361 20 36 36 19 194 -31 292 -78 153 -259 236 -454 207z m200 -163 c75 -34 124 -100 145 -193 l8 -33 -285 0 -285 0 7 28 c22 92 97 176 182 205 73 24 168 22 228 -7z"/>
    <path d="M8275 2379 c-77 -11 -188 -66 -244 -121 -98 -96 -142 -206 -142 -353 0 -207 103 -363 289 -436 53 -22 75 -24 311 -27 272 -4 300 0 320 44 18 40 15 475 -4 549 -61 232 -287 379 -530 344z m208 -173 c20 -8 57 -35 81 -61 116 -119 119 -329 8 -456 -67 -77 -210 -111 -321 -78 -60 18 -142 95 -172 161 -20 44 -24 69 -24 148 1 83 4 102 27 146 76 145 247 205 401 140z"/>
    <path d="M9485 2378 c-45 -26 -44 -23 -45 -461 l0 -418 25 -24 c27 -28 79 -33 107 -11 33 25 38 64 38 330 0 296 2 309 68 368 55 50 127 72 217 66 132 -9 211 -81 234 -212 6 -34 11 -165 11 -290 l0 -227 25 -24 c33 -34 83 -34 116 1 24 25 24 27 27 273 2 192 0 264 -12 320 -36 171 -155 284 -326 311 -91 14 -459 13 -485 -2z"/>
    <path d="M5565 2368 c-45 -24 -45 -21 -45 -455 0 -398 1 -414 20 -433 45 -45 120 -33 139 22 15 42 15 784 0 826 -15 43 -72 63 -114 40z"/>
    <path d="M6269 2362 c-17 -14 -22 -28 -21 -57 2 -40 230 -741 263 -806 29 -58 83 -67 128 -21 22 22 40 72 99 282 39 140 79 280 88 310 l17 55 79 -295 c43 -162 85 -310 93 -328 25 -56 90 -67 134 -23 19 19 281 790 281 828 0 29 -38 73 -63 73 -12 0 -36 -8 -53 -19 -32 -19 -33 -22 -187 -506 l-45 -140 -11 40 c-6 22 -41 159 -78 305 -57 226 -71 269 -94 293 -15 15 -38 27 -51 27 -28 0 -64 -23 -78 -51 -6 -10 -49 -148 -95 -306 -47 -157 -86 -288 -88 -289 -2 -2 -43 121 -91 274 -49 152 -97 294 -107 314 -30 59 -77 74 -120 40z"/>
  </g>
</svg>